<svg xmlns="http://www.w3.org/2000/svg" version="1.1" xmlns:xlink="http://www.w3.org/1999/xlink" xmlns:svgjs="http://svgjs.dev/svgjs" width="1000" height="1000"><style>
    #light-icon {
      display: inline;
    }
    #dark-icon {
      display: none;
    }

    @media (prefers-color-scheme: dark) {
      #light-icon {
        display: none;
      }
      #dark-icon {
        display: inline;
      }
    }
  </style><g id="light-icon"><svg xmlns="http://www.w3.org/2000/svg" version="1.1" xmlns:xlink="http://www.w3.org/1999/xlink" xmlns:svgjs="http://svgjs.dev/svgjs" width="1000" height="1000"><g clip-path="url(#SvgjsClipPath1035)"><rect width="1000" height="1000" fill="#f7a600"></rect><g transform="matrix(9.090909090909092,0,0,9.090909090909092,154.5454545454545,149.99999999999994)"><svg xmlns="http://www.w3.org/2000/svg" version="1.1" xmlns:xlink="http://www.w3.org/1999/xlink" xmlns:svgjs="http://svgjs.dev/svgjs" width="76" height="77"><svg width="76" height="77" viewBox="0 0 76 77" fill="none" xmlns="http://www.w3.org/2000/svg">
<path d="M60.5625 30.3428H59.3144C59.0414 25.5519 57.1368 20.9946 53.912 17.4164C50.6873 13.8383 46.3334 11.4511 41.5625 10.6454V3.26167C41.5625 2.94939 41.4374 2.64991 41.2147 2.42909C40.992 2.20828 40.6899 2.08423 40.375 2.08423H35.625C35.3101 2.08423 35.008 2.20828 34.7853 2.42909C34.5626 2.64991 34.4375 2.94939 34.4375 3.26167V10.6454C29.6666 11.4511 25.3127 13.8383 22.088 17.4164C18.8632 20.9946 16.9586 25.5519 16.6856 30.3428H15.4375C15.1226 30.3428 14.8205 30.4669 14.5978 30.6877C14.3751 30.9085 14.25 31.208 14.25 31.5203V36.23C14.25 36.5423 14.3751 36.8418 14.5978 37.0626C14.8205 37.2834 15.1226 37.4075 15.4375 37.4075H16.7639L21.3845 74.0541C21.4204 74.3389 21.5599 74.6008 21.7768 74.7907C21.9937 74.9806 22.2731 75.0855 22.5625 75.0856H53.4375C53.7269 75.0855 54.0063 74.9806 54.2232 74.7907C54.4401 74.6008 54.5796 74.3389 54.6155 74.0541L59.2361 37.4075H60.5625C60.8774 37.4075 61.1795 37.2834 61.4022 37.0626C61.6249 36.8418 61.75 36.5423 61.75 36.23V31.5203C61.75 31.208 61.6249 30.9085 61.4022 30.6877C61.1795 30.4669 60.8774 30.3428 60.5625 30.3428ZM56.9394 30.3428H41.5625V17.8419C45.0504 18.7355 48.0684 20.9043 50.0104 23.9128L52.0125 22.6435C50.8337 20.8207 49.304 19.2461 47.5109 18.0101C45.7177 16.774 43.6964 15.9006 41.5625 15.4399V13.025C45.6981 13.8153 49.452 15.9447 52.235 19.079C55.0181 22.2133 56.6728 26.1752 56.9394 30.3428ZM39.1875 30.3428H36.8125V12.7412C37.2068 12.7165 37.5986 12.6812 38 12.6812C38.4014 12.6812 38.7932 12.7165 39.1875 12.7412V30.3428ZM36.8125 4.43911H39.1875V10.3864C38.7921 10.364 38.4014 10.3263 38 10.3263C37.5986 10.3263 37.2079 10.364 36.8125 10.3864V4.43911ZM34.4375 13.025V30.3428H19.0606C19.3272 26.1752 20.9819 22.2133 23.765 19.079C26.548 15.9447 30.3019 13.8153 34.4375 13.025ZM52.3889 72.7307H23.6111L19.1579 37.4075H34.4375V43.2947H36.8125V37.4075H39.1875V43.2947H41.5625V37.4075H56.8421L52.3889 72.7307ZM59.375 35.0526H16.625V32.6977H59.375V35.0526Z" fill="#F2F2F2"></path>
<path d="M39.6043 47.424C39.0472 46.5552 38.2863 45.8329 37.3866 45.3189C36.4868 44.8048 35.475 44.5143 34.4375 44.4722C30.5081 44.4722 27.3125 48.698 27.3125 53.8917C27.3125 59.0854 30.5081 63.3112 34.4375 63.3112C35.8359 63.2893 37.1804 62.7723 38.228 61.8536C38.9601 62.1105 39.7314 62.2399 40.508 62.2362C43.3132 62.1126 45.9598 60.9112 47.8871 58.8864C51.5909 55.2151 52.3438 49.9861 49.5663 47.2297C47.2103 44.8949 43.1063 45.0397 39.6043 47.424ZM29.6875 53.8917C29.6475 52.7723 29.8373 51.6564 30.2456 50.612C30.6539 49.5676 31.272 48.6164 32.0625 47.8161V48.9041C32.0651 50.8178 32.5142 52.705 33.3747 54.418C34.0713 55.8039 34.435 57.3309 34.4375 58.8793V60.9563C31.863 60.9563 29.6875 57.7207 29.6875 53.8917ZM36.8125 59.9673V58.8793C36.8117 56.9661 36.3647 55.0789 35.5063 53.3654C34.8076 51.98 34.4418 50.453 34.4375 48.9041V46.8271C37.012 46.8271 39.1875 50.0627 39.1875 53.8917C39.2275 55.0111 39.0377 56.1269 38.6294 57.1714C38.2211 58.2158 37.603 59.167 36.8125 59.9673ZM46.208 57.2215C45.4397 58.0472 44.5086 58.7077 43.4723 59.1622C42.4361 59.6167 41.3168 59.8554 40.1838 59.8637L40.9711 59.083C42.3356 57.7291 43.3641 56.0793 43.9755 54.2638C44.4704 52.7954 45.302 51.4609 46.4051 50.3653L47.8871 48.8958C49.7064 50.7008 48.9381 54.5134 46.208 57.2215ZM45.5038 47.9291L44.726 48.7004C43.3626 50.0552 42.3343 51.7047 41.7216 53.5196C41.6765 53.6539 41.6124 53.7834 41.5613 53.9164V53.8917C41.567 52.3976 41.2895 50.9158 40.7431 49.5234C42.1035 48.4752 43.7811 47.9134 45.5038 47.9291Z" fill="#F2F2F2"></path>
<path d="M51.8688 28.2587L54.1796 27.7171C53.9725 26.8503 53.6945 26.0017 53.3484 25.1797L51.1562 26.0863C51.4527 26.7901 51.691 27.5166 51.8688 28.2587Z" fill="#F2F2F2"></path>
</svg></svg></g></g><defs><clipPath id="SvgjsClipPath1035"><rect width="1000" height="1000" x="0" y="0" rx="350" ry="350"></rect></clipPath></defs></svg></g><g id="dark-icon"><svg xmlns="http://www.w3.org/2000/svg" version="1.1" xmlns:xlink="http://www.w3.org/1999/xlink" xmlns:svgjs="http://svgjs.dev/svgjs" width="1000" height="1000"><g clip-path="url(#SvgjsClipPath1036)"><rect width="1000" height="1000" fill="#f7a600"></rect><g transform="matrix(9.090909090909092,0,0,9.090909090909092,154.5454545454545,149.99999999999994)"><svg xmlns="http://www.w3.org/2000/svg" version="1.1" xmlns:xlink="http://www.w3.org/1999/xlink" xmlns:svgjs="http://svgjs.dev/svgjs" width="76" height="77"><svg width="76" height="77" viewBox="0 0 76 77" fill="none" xmlns="http://www.w3.org/2000/svg">
<path d="M60.5625 30.3428H59.3144C59.0414 25.5519 57.1368 20.9946 53.912 17.4164C50.6873 13.8383 46.3334 11.4511 41.5625 10.6454V3.26167C41.5625 2.94939 41.4374 2.64991 41.2147 2.42909C40.992 2.20828 40.6899 2.08423 40.375 2.08423H35.625C35.3101 2.08423 35.008 2.20828 34.7853 2.42909C34.5626 2.64991 34.4375 2.94939 34.4375 3.26167V10.6454C29.6666 11.4511 25.3127 13.8383 22.088 17.4164C18.8632 20.9946 16.9586 25.5519 16.6856 30.3428H15.4375C15.1226 30.3428 14.8205 30.4669 14.5978 30.6877C14.3751 30.9085 14.25 31.208 14.25 31.5203V36.23C14.25 36.5423 14.3751 36.8418 14.5978 37.0626C14.8205 37.2834 15.1226 37.4075 15.4375 37.4075H16.7639L21.3845 74.0541C21.4204 74.3389 21.5599 74.6008 21.7768 74.7907C21.9937 74.9806 22.2731 75.0855 22.5625 75.0856H53.4375C53.7269 75.0855 54.0063 74.9806 54.2232 74.7907C54.4401 74.6008 54.5796 74.3389 54.6155 74.0541L59.2361 37.4075H60.5625C60.8774 37.4075 61.1795 37.2834 61.4022 37.0626C61.6249 36.8418 61.75 36.5423 61.75 36.23V31.5203C61.75 31.208 61.6249 30.9085 61.4022 30.6877C61.1795 30.4669 60.8774 30.3428 60.5625 30.3428ZM56.9394 30.3428H41.5625V17.8419C45.0504 18.7355 48.0684 20.9043 50.0104 23.9128L52.0125 22.6435C50.8337 20.8207 49.304 19.2461 47.5109 18.0101C45.7177 16.774 43.6964 15.9006 41.5625 15.4399V13.025C45.6981 13.8153 49.452 15.9447 52.235 19.079C55.0181 22.2133 56.6728 26.1752 56.9394 30.3428ZM39.1875 30.3428H36.8125V12.7412C37.2068 12.7165 37.5986 12.6812 38 12.6812C38.4014 12.6812 38.7932 12.7165 39.1875 12.7412V30.3428ZM36.8125 4.43911H39.1875V10.3864C38.7921 10.364 38.4014 10.3263 38 10.3263C37.5986 10.3263 37.2079 10.364 36.8125 10.3864V4.43911ZM34.4375 13.025V30.3428H19.0606C19.3272 26.1752 20.9819 22.2133 23.765 19.079C26.548 15.9447 30.3019 13.8153 34.4375 13.025ZM52.3889 72.7307H23.6111L19.1579 37.4075H34.4375V43.2947H36.8125V37.4075H39.1875V43.2947H41.5625V37.4075H56.8421L52.3889 72.7307ZM59.375 35.0526H16.625V32.6977H59.375V35.0526Z" fill="#F2F2F2"></path>
<path d="M39.6043 47.424C39.0472 46.5552 38.2863 45.8329 37.3866 45.3189C36.4868 44.8048 35.475 44.5143 34.4375 44.4722C30.5081 44.4722 27.3125 48.698 27.3125 53.8917C27.3125 59.0854 30.5081 63.3112 34.4375 63.3112C35.8359 63.2893 37.1804 62.7723 38.228 61.8536C38.9601 62.1105 39.7314 62.2399 40.508 62.2362C43.3132 62.1126 45.9598 60.9112 47.8871 58.8864C51.5909 55.2151 52.3438 49.9861 49.5663 47.2297C47.2103 44.8949 43.1063 45.0397 39.6043 47.424ZM29.6875 53.8917C29.6475 52.7723 29.8373 51.6564 30.2456 50.612C30.6539 49.5676 31.272 48.6164 32.0625 47.8161V48.9041C32.0651 50.8178 32.5142 52.705 33.3747 54.418C34.0713 55.8039 34.435 57.3309 34.4375 58.8793V60.9563C31.863 60.9563 29.6875 57.7207 29.6875 53.8917ZM36.8125 59.9673V58.8793C36.8117 56.9661 36.3647 55.0789 35.5063 53.3654C34.8076 51.98 34.4418 50.453 34.4375 48.9041V46.8271C37.012 46.8271 39.1875 50.0627 39.1875 53.8917C39.2275 55.0111 39.0377 56.1269 38.6294 57.1714C38.2211 58.2158 37.603 59.167 36.8125 59.9673ZM46.208 57.2215C45.4397 58.0472 44.5086 58.7077 43.4723 59.1622C42.4361 59.6167 41.3168 59.8554 40.1838 59.8637L40.9711 59.083C42.3356 57.7291 43.3641 56.0793 43.9755 54.2638C44.4704 52.7954 45.302 51.4609 46.4051 50.3653L47.8871 48.8958C49.7064 50.7008 48.9381 54.5134 46.208 57.2215ZM45.5038 47.9291L44.726 48.7004C43.3626 50.0552 42.3343 51.7047 41.7216 53.5196C41.6765 53.6539 41.6124 53.7834 41.5613 53.9164V53.8917C41.567 52.3976 41.2895 50.9158 40.7431 49.5234C42.1035 48.4752 43.7811 47.9134 45.5038 47.9291Z" fill="#F2F2F2"></path>
<path d="M51.8688 28.2587L54.1796 27.7171C53.9725 26.8503 53.6945 26.0017 53.3484 25.1797L51.1562 26.0863C51.4527 26.7901 51.691 27.5166 51.8688 28.2587Z" fill="#F2F2F2"></path>
</svg></svg></g></g><defs><clipPath id="SvgjsClipPath1036"><rect width="1000" height="1000" x="0" y="0" rx="500" ry="500"></rect></clipPath></defs></svg></g></svg>